<?xml version="1.0" standalone="no"?><svg xmlns="http://www.w3.org/2000/svg" viewBox="0 0 1440 320"><path fill="#F9C74F" fill-opacity="1" d="M0,160L0,0L38.9,0L38.9,320L77.8,320L77.8,64L116.8,64L116.8,192L155.7,192L155.7,160L194.6,160L194.6,224L233.5,224L233.5,32L272.4,32L272.4,96L311.4,96L311.4,320L350.3,320L350.3,192L389.2,192L389.2,288L428.1,288L428.1,32L467,32L467,96L505.9,96L505.9,288L544.9,288L544.9,64L583.8,64L583.8,256L622.7,256L622.7,64L661.6,64L661.6,160L700.5,160L700.5,192L739.5,192L739.5,320L778.4,320L778.4,32L817.3,32L817.3,96L856.2,96L856.2,224L895.1,224L895.1,96L934.1,96L934.1,320L973,320L973,256L1011.9,256L1011.9,96L1050.8,96L1050.8,192L1089.7,192L1089.7,160L1128.6,160L1128.6,320L1167.6,320L1167.6,64L1206.5,64L1206.5,288L1245.4,288L1245.4,0L1284.3,0L1284.3,160L1323.2,160L1323.2,224L1362.2,224L1362.2,256L1401.1,256L1401.1,160L1440,160L1440,320L1401.1,320L1401.1,320L1362.2,320L1362.2,320L1323.2,320L1323.2,320L1284.3,320L1284.3,320L1245.4,320L1245.4,320L1206.5,320L1206.5,320L1167.6,320L1167.6,320L1128.6,320L1128.6,320L1089.7,320L1089.7,320L1050.8,320L1050.8,320L1011.9,320L1011.9,320L973,320L973,320L934.1,320L934.1,320L895.1,320L895.1,320L856.2,320L856.2,320L817.3,320L817.3,320L778.4,320L778.4,320L739.5,320L739.5,320L700.5,320L700.5,320L661.6,320L661.6,320L622.7,320L622.7,320L583.8,320L583.8,320L544.9,320L544.9,320L505.9,320L505.9,320L467,320L467,320L428.1,320L428.1,320L389.2,320L389.2,320L350.3,320L350.3,320L311.4,320L311.4,320L272.4,320L272.4,320L233.5,320L233.5,320L194.6,320L194.6,320L155.7,320L155.7,320L116.8,320L116.8,320L77.8,320L77.8,320L38.9,320L38.9,320L0,320L0,320Z"></path></svg>